<svg xmlns="http://www.w3.org/2000/svg" width="512" height="512" viewBox="0 0 512 512">
  <defs>
    <radialGradient id="bgF" cx="50%" cy="16%" r="80%"><stop offset="0%" stop-color="#4ef08c" stop-opacity="0.10"/><stop offset="62%" stop-color="#4ef08c" stop-opacity="0"/></radialGradient>
    <filter id="glowF" x="-40%" y="-40%" width="180%" height="180%"><feGaussianBlur stdDeviation="7" result="b"/><feMerge><feMergeNode in="b"/><feMergeNode in="SourceGraphic"/></feMerge></filter>
  </defs>
  <rect width="512" height="512" rx="96" fill="#0a0b0d"/>
  <rect width="512" height="512" rx="96" fill="url(#bgF)"/>
  <!-- green "g" only (no gray halo); centered on g bbox (493,505 in 1000-space), zoomed to fill -->
  <g transform="translate(256,262) scale(0.98) translate(-493,-505)">
    <g filter="url(#glowF)">
      <g stroke="#4ef08c" stroke-width="17" stroke-linecap="round" stroke-linejoin="round" fill="none">
        <path d="M560 300 L400 300 L330 420 L400 540 L560 540 L620 420 Z"/>
        <path d="M620 420 L660 300"/>
        <path d="M620 420 L640 640 L500 710 L360 640"/>
      </g>
      <g fill="#4ef08c">
        <circle cx="560" cy="300" r="24"/><circle cx="400" cy="300" r="24"/><circle cx="660" cy="300" r="20"/>
        <circle cx="330" cy="420" r="24"/><circle cx="620" cy="420" r="24"/>
        <circle cx="400" cy="540" r="24"/><circle cx="560" cy="540" r="24"/>
        <circle cx="640" cy="640" r="24"/><circle cx="500" cy="710" r="24"/><circle cx="360" cy="640" r="24"/>
      </g>
    </g>
  </g>
</svg>
